<?xml version="1.0" encoding="UTF-8"?>
<svg viewBox="0 0 1000 400" version="1.1" xmlns="http://www.w3.org/2000/svg" xmlns:xlink="http://www.w3.org/1999/xlink" style="background: #F5F5F5;">
    <!-- Generator: Sketch 48.2 (47327) - http://www.bohemiancoding.com/sketch -->
    <title>Artboard</title>
    <desc>Created with Sketch.</desc>
    <defs></defs>
    <g id="Page-1" stroke="none" stroke-width="1" fill="none" fill-rule="evenodd">
        <g id="Artboard">
            <g id="Group" transform="translate(264.000000, 111.000000)">
                <path d="M89.52,68.24 L88.92,75.44 C87.0799908,75.2799992 85.1000106,75.2 82.98,75.2 C80.8599894,75.2 79.0800072,75.2399996 77.64,75.32 C76.5199944,84.120044 75.8000016,93.6799484 75.48,104 L67.08,104 C66.5999976,101.91999 66.36,99.1600172 66.36,95.72 C66.36,92.2799828 66.459999,89.3000126 66.66,86.78 C66.860001,84.2599874 67.1199984,81.7600124 67.44,79.28 C67.7600016,76.7999876 67.92,75.360002 67.92,74.96 C66.7999944,74.8799996 64.1600208,74.84 60,74.84 C55.8399792,74.84 52.960008,74.9199992 51.36,75.08 C42.0799536,87.5600624 33.5200392,97.0199678 25.68,103.46 C17.8399608,109.900032 10.0000392,113.12 2.16,113.12 C-1.6800192,113.12 -4.899987,111.960012 -7.5,109.64 C-10.100013,107.319988 -11.4,104.240019 -11.4,100.4 C-11.4,93.1199636 -5.8600554,86.48003 5.22,80.48 C16.3000554,74.47997 30.639912,70.4400104 48.24,68.36 C50.3200104,65.159984 54.1999716,60.2200334 59.88,53.54 C65.5600284,46.8599666 71.1599724,41.0400248 76.68,36.08 C79.080012,30.479972 80.979993,26.580011 82.38,24.38 C83.780007,22.179989 85.1599932,21.08 86.52,21.08 C87.8800068,21.08 88.9999956,21.5999948 89.88,22.64 C90.7600044,23.6800052 91.2,25.0199918 91.2,26.66 C91.2,28.3000082 90.300009,30.6999842 88.5,33.86 C86.699991,37.0200158 84.8400096,41.899967 82.92,48.5 C80.9999904,55.100033 79.6800036,61.3199708 78.96,67.16 C83.1200208,67.16 86.6399856,67.5199964 89.52,68.24 Z M28.32,93.32 C34.9600332,86.9999684 39.9599832,81.0000284 43.32,75.32 C29.8799328,76.120004 19.5000366,78.6399788 12.18,82.88 C4.8599634,87.1200212 1.2,91.639976 1.2,96.44 C1.2,98.5200104 1.899993,100.159994 3.3,101.36 C4.700007,102.560006 6.5599884,103.16 8.88,103.16 C15.1200312,103.16 21.5999664,99.8800328 28.32,93.32 Z M69.36,67.16 C69.9200028,64.4399864 70.6599954,61.0200206 71.58,56.9 C72.5000046,52.7799794 73.0399992,50.3600036 73.2,49.64 C69.3599808,53.3200184 66.6800076,56.0199914 65.16,57.74 C63.6399924,59.4600086 60.9600192,62.7599756 57.12,67.64 C58.4800068,67.5599996 60.1399902,67.5000002 62.1,67.46 C64.0600098,67.4199998 65.6799936,67.3600004 66.96,67.28 C68.2400064,67.1999996 69.0399984,67.16 69.36,67.16 Z M124.08,90.56 L126.72,93.56 C124.71999,96.6800156 122.300014,99.1199912 119.46,100.88 C116.619986,102.640009 113.760014,103.52 110.88,103.52 C107.999986,103.52 105.720008,102.700008 104.04,101.06 C102.359992,99.4199918 101.52,97.1600144 101.52,94.28 C101.52,87.5599664 104.039975,78.2800592 109.08,66.44 C104.99998,67.0800032 100.92002,68.0399936 96.84,69.32 L96,64.64 L95.88,64.52 C99.88002,62.8399916 105.119968,61.4800052 111.6,60.44 C112.240003,59.239994 113.679989,56.3200232 115.92,51.68 C120.400022,42.479954 123.59999,36.5200136 125.52,33.8 L130.68,35.84 C129.879996,37.6000088 128.48001,40.5399794 126.48,44.66 C124.47999,48.7800206 122.240012,53.439974 119.76,58.64 C123.360018,58.3999988 126.19999,58.28 128.28,58.28 C130.36001,58.28 131.959994,58.5999968 133.08,59.24 L133.08,64.4 C131.959994,64.1599988 130.340011,64.04 128.22,64.04 C126.099989,64.04 122.320027,64.3999964 116.88,65.12 C112.159976,75.6800528 109.8,83.359976 109.8,88.16 C109.8,90.0000092 110.379994,91.519994 111.54,92.72 C112.700006,93.920006 114.25999,94.52 116.22,94.52 C118.18001,94.52 120.799984,93.2000132 124.08,90.56 Z M181.92,95.24 L184.68,97.52 C181.319983,103.120028 176.960027,105.92 171.6,105.92 C166.959977,105.92 164.64,103.640023 164.64,99.08 C164.64,96.4399868 165.779989,92.220029 168.06,86.42 C170.340011,80.619971 171.48,76.8000092 171.48,74.96 C171.48,72.6399884 170.000015,71.48 167.04,71.48 C164.079985,71.48 160.060025,74.6599682 154.98,81.02 C149.899975,87.3800318 145.640017,94.759958 142.2,103.16 L135.12,100.64 C139.280021,79.7598956 150.159912,51.8001752 167.76,16.76 L173.64,18.68 C164.759956,36.4400888 158.400019,50.5599476 154.56,61.04 C150.55998,71.9200544 147.56001,80.9199644 145.56,88.04 C151.720031,77.8799492 157.019978,70.8400196 161.46,66.92 C165.900022,62.9999804 169.759984,61.04 173.04,61.04 C178.96003,61.04 181.92,63.1599788 181.92,67.4 C181.92,70.0400132 180.440015,74.759966 177.48,81.56 C174.519985,88.360034 173.04,92.8799888 173.04,95.12 C173.04,97.3600112 174.119989,98.48 176.28,98.48 C177.400006,98.48 179.279987,97.4000108 181.92,95.24 Z M221.16,89.84 L223.92,92 C221.439988,95.4400172 218.040022,98.2999886 213.72,100.58 C209.399978,102.860011 205.20002,104 201.12,104 C197.03998,104 193.760012,102.800012 191.28,100.4 C188.799988,97.999988 187.56,94.8400196 187.56,90.92 C187.56,83.5599632 191.459961,76.3200356 199.26,69.2 C207.060039,62.0799644 214.95996,58.52 222.96,58.52 C228.240026,58.52 230.88,60.5999792 230.88,64.76 C230.88,69.0800216 228.100028,73.439978 222.54,77.84 C216.979972,82.240022 209.16005,86.239982 199.08,89.84 C199.800004,91.6800092 200.919992,93.1199948 202.44,94.16 C203.960008,95.2000052 205.519992,95.72 207.12,95.72 C210.560017,95.72 215.23997,93.7600196 221.16,89.84 Z M198.48,86.24 C204.960032,83.9999888 210.519977,81.2000168 215.16,77.84 C219.800023,74.4799832 222.12,71.400014 222.12,68.6 C222.12,67.5599948 221.720004,66.640004 220.92,65.84 C220.119996,65.039996 219.200005,64.64 218.16,64.64 C214.399981,64.64 210.340022,66.9799766 205.98,71.66 C201.619978,76.3400234 199.120003,81.1999748 198.48,86.24 Z M283.56,89.48 L286.08,91.4 C284.319991,94.9200176 281.900015,97.879988 278.82,100.28 C275.739985,102.680012 272.960012,103.88 270.48,103.88 C267.999988,103.88 266.040007,103.160007 264.6,101.72 C263.159993,100.279993 262.44,98.4800108 262.44,96.32 C262.44,94.1599892 263.819986,90.380027 266.58,84.98 C269.340014,79.579973 270.72,75.6000128 270.72,73.04 C270.72,71.9199944 270.260005,70.9000046 269.34,69.98 C268.419995,69.0599954 267.320006,68.6 266.04,68.6 C261.95998,68.6 257.840021,71.699969 253.68,77.9 C249.519979,84.100031 244.880026,93.0399416 239.76,104.72 L232.56,102.2 C234.080008,92.9199536 236.259986,83.8600442 239.1,75.02 C241.940014,66.1799558 244.559988,59.8400192 246.96,56 L251.88,57.56 C249.639989,63.2400284 246.800017,73.0399304 243.36,86.96 C254.400055,68.0799056 264.559954,58.64 273.84,58.64 C275.84001,58.64 277.499993,59.3199932 278.82,60.68 C280.140007,62.0400068 280.8,63.6399908 280.8,65.48 C280.8,67.3200092 280.560002,68.9799926 280.08,70.46 C279.599998,71.9400074 278.100013,75.379973 275.58,80.78 C273.059987,86.180027 271.8,89.5599932 271.8,90.92 C271.8,92.2800068 272.199996,93.3399962 273,94.1 C273.800004,94.8600038 274.559996,95.24 275.28,95.24 C276.000004,95.24 276.599998,95.1200012 277.08,94.88 C277.560002,94.6399988 278.099997,94.2800024 278.7,93.8 C279.300003,93.3199976 279.839998,92.880002 280.32,92.48 C280.800002,92.079998 281.379997,91.5400034 282.06,90.86 C282.740003,90.1799966 283.239998,89.7200012 283.56,89.48 Z M322.56,89.84 L325.32,92 C322.839988,95.4400172 319.440022,98.2999886 315.12,100.58 C310.799978,102.860011 306.60002,104 302.52,104 C298.43998,104 295.160012,102.800012 292.68,100.4 C290.199988,97.999988 288.96,94.8400196 288.96,90.92 C288.96,83.5599632 292.859961,76.3200356 300.66,69.2 C308.460039,62.0799644 316.35996,58.52 324.36,58.52 C329.640026,58.52 332.28,60.5999792 332.28,64.76 C332.28,69.0800216 329.500028,73.439978 323.94,77.84 C318.379972,82.240022 310.56005,86.239982 300.48,89.84 C301.200004,91.6800092 302.319992,93.1199948 303.84,94.16 C305.360008,95.2000052 306.919992,95.72 308.52,95.72 C311.960017,95.72 316.63997,93.7600196 322.56,89.84 Z M299.88,86.24 C306.360032,83.9999888 311.919977,81.2000168 316.56,77.84 C321.200023,74.4799832 323.52,71.400014 323.52,68.6 C323.52,67.5599948 323.120004,66.640004 322.32,65.84 C321.519996,65.039996 320.600005,64.64 319.56,64.64 C315.799981,64.64 311.740022,66.9799766 307.38,71.66 C303.019978,76.3400234 300.520003,81.1999748 299.88,86.24 Z M382.8,90.8 L385.32,92.84 C383.959993,96.2000168 381.820015,99.0399884 378.9,101.36 C375.979985,103.680012 373.340012,104.84 370.98,104.84 C368.619988,104.84 366.760007,104.020008 365.4,102.38 C364.039993,100.739992 363.36,98.6000132 363.36,95.96 C363.36,93.3199868 363.799996,89.9200208 364.68,85.76 C360.919981,91.6800296 356.880022,96.3199832 352.56,99.68 C348.239978,103.040017 344.600015,104.72 341.64,104.72 C337.159978,104.72 334.92,101.520032 334.92,95.12 C334.92,89.6799728 336.759982,82.7200424 340.44,74.24 C344.120018,65.7599576 346.799992,60.8400068 348.48,59.48 L354.24,62 C350.959984,67.2800264 348.480008,72.4799744 346.8,77.6 C345.119992,82.7200256 344.28,86.1399914 344.28,87.86 C344.28,89.5800086 344.819995,90.9599948 345.9,92 C346.980005,93.0400052 348.239993,93.56 349.68,93.56 C352.880016,93.56 356.859976,90.6200294 361.62,84.74 C366.380024,78.8599706 371.239975,70.0800584 376.2,58.4 L382.32,61.16 C382.159999,61.8000032 380.340017,66.4399568 376.86,75.08 C373.379983,83.7200432 371.64,88.8999914 371.64,90.62 C371.64,92.3400086 372.019996,93.6399956 372.78,94.52 C373.540004,95.4000044 374.299996,95.84 375.06,95.84 C375.820004,95.84 376.399998,95.8000004 376.8,95.72 C377.200002,95.6399996 377.599998,95.4800012 378,95.24 C378.400002,94.9999988 378.739999,94.8000008 379.02,94.64 C379.300001,94.4799992 379.639998,94.200002 380.04,93.8 L381,92.96 C381.160001,92.7199988 381.459998,92.3400026 381.9,91.82 C382.340002,91.2999974 382.639999,90.9600008 382.8,90.8 Z M468.72,88.4 L471.24,90.8 C466.679977,98.9600408 461.44003,103.04 455.52,103.04 C453.119988,103.04 451.260007,102.380007 449.94,101.06 C448.619993,99.7399934 447.96,97.980011 447.96,95.78 C447.96,93.579989 449.279987,89.8000268 451.92,84.44 C454.560013,79.0799732 455.959999,75.000014 456.12,72.2 C456.2,70.9199936 455.820004,69.880004 454.98,69.08 C454.139996,68.279996 453.000007,67.88 451.56,67.88 C450.119993,67.88 448.660007,68.2199966 447.18,68.9 C445.699993,69.5800034 444.260007,70.6799924 442.86,72.2 C441.459993,73.7200076 440.180006,75.1999928 439.02,76.64 C437.859994,78.0800072 436.580007,80.1199868 435.18,82.76 C433.779993,85.4000132 432.600005,87.5999912 431.64,89.36 C429.959992,92.6400164 427.560016,97.5599672 424.44,104.12 L417.24,101.6 C417.24,101.359999 418.559987,96.840044 421.2,88.04 C423.840013,79.239956 425.16,74.0000084 425.16,72.32 C425.16,70.6399916 424.760004,69.4200038 423.96,68.66 C423.159996,67.8999962 422.160006,67.52 420.96,67.52 C417.359982,67.52 412.380032,71.9999552 406.02,80.96 C399.659968,89.9200448 395.600009,97.5599684 393.84,103.88 L387,101.6 C387.400002,97.3599788 389.279983,89.740055 392.64,78.74 C396.000017,67.739945 398.839988,60.24002 401.16,56.24 L406.56,58.16 C404.079988,63.6800276 402.360005,68.339981 401.4,72.14 C400.439995,75.940019 399.600004,79.9999784 398.88,84.32 C405.760034,74.4799508 411.519977,67.5800198 416.16,63.62 C420.800023,59.6599802 424.999981,57.68 428.76,57.68 C432.84002,57.68 434.88,59.7199796 434.88,63.8 C434.88,65.400008 434.180007,68.5599764 432.78,73.28 C431.379993,78.0000236 430.280004,81.7199864 429.48,84.44 C440.520055,66.6799112 450.399956,57.8 459.12,57.8 C461.280011,57.8 462.999994,58.4599934 464.28,59.78 C465.560006,61.1000066 466.2,63.059987 466.2,65.66 C466.2,68.260013 464.700015,72.55997 461.7,78.56 C458.699985,84.56003 457.2,88.3399922 457.2,89.9 C457.2,91.4600078 457.519997,92.5999964 458.16,93.32 C458.800003,94.0400036 459.599995,94.4 460.56,94.4 C462.64001,94.4 465.359983,92.40002 468.72,88.4 Z" id="Atheneum" fill="#00BFB2"></path>
                <path d="M12.92,156.2 L23.168,156.2 L23.168,158.264 L15.2,158.264 L15.2,163.184 L21.344,163.184 L21.344,165.248 L15.2,165.248 L15.2,173 L12.92,173 L12.92,156.2 Z M24.848,156.2 L27.008,156.2 L27.008,158.6 L24.848,158.6 L24.848,156.2 Z M24.848,161.24 L27.008,161.24 L27.008,173 L24.848,173 L24.848,161.24 Z M35.744,161 C38.944016,161 40.544,162.839982 40.544,166.52 L40.544,173 L38.384,173 L38.384,166.52 C38.384,165.255994 38.1480024,164.340003 37.676,163.772 C37.2039976,163.203997 36.4160055,162.92 35.312,162.92 C34.6079965,162.92 33.9680029,163.047999 33.392,163.304 C32.8159971,163.560001 32.3840014,163.943997 32.096,164.456 L32.096,173 L29.936,173 L29.936,161.24 L31.616,161.24 L31.856,162.488 C32.4800031,161.927997 33.1079968,161.540001 33.74,161.324 C34.3720032,161.107999 35.0399965,161 35.744,161 Z M53.768,155 L53.768,173 L51.848,173 L51.608,171.56 C51.207998,172.104003 50.6880032,172.519999 50.048,172.808 C49.4079968,173.096001 48.7280036,173.24 48.008,173.24 C47.015995,173.24 46.1120041,172.968003 45.296,172.424 C44.4799959,171.879997 43.8360024,171.144005 43.364,170.216 C42.8919976,169.287995 42.656,168.264006 42.656,167.144 C42.656,166.055995 42.8759978,165.040005 43.316,164.096 C43.7560022,163.151995 44.3839959,162.400003 45.2,161.84 C46.0160041,161.279997 46.9519947,161 48.008,161 C48.7120035,161 49.3759969,161.127999 50,161.384 C50.6240031,161.640001 51.1599978,162.031997 51.608,162.56 L51.608,155 L53.768,155 Z M48.392,171.32 C48.9680029,171.32 49.5199974,171.172001 50.048,170.876 C50.5760026,170.579999 51.0079983,170.120003 51.344,169.496 C51.6800017,168.871997 51.848,168.088005 51.848,167.144 C51.848,166.263996 51.6800017,165.504003 51.344,164.864 C51.0079983,164.223997 50.5720027,163.740002 50.036,163.412 C49.4999973,163.083998 48.9520028,162.92 48.392,162.92 C47.3039946,162.92 46.4440032,163.315996 45.812,164.108 C45.1799968,164.900004 44.864,165.911994 44.864,167.144 C44.864,168.328006 45.1839968,169.319996 45.824,170.12 C46.4640032,170.920004 47.3199946,171.32 48.392,171.32 Z M64.808,173.24 C63.7199946,173.24 62.8440033,172.920003 62.18,172.28 C61.5159967,171.639997 61.184,170.824005 61.184,169.832 C61.184,168.343993 61.887993,167.280003 63.296,166.64 C64.704007,165.999997 66.3439906,165.664 68.216,165.632 C68.216,164.575995 68.012002,163.860002 67.604,163.484 C67.195998,163.107998 66.5440045,162.92 65.648,162.92 C65.1519975,162.92 64.6560025,162.995999 64.16,163.148 C63.6639975,163.300001 63.1280029,163.575998 62.552,163.976 L62.24,162.224 C62.7200024,161.855998 63.3119965,161.560001 64.016,161.336 C64.7200035,161.111999 65.4559962,161 66.224,161 C67.232005,161 68.035997,161.175998 68.636,161.528 C69.236003,161.880002 69.6759986,162.463996 69.956,163.28 C70.2360014,164.096004 70.376,165.215993 70.376,166.64 L70.376,169.04 C70.376,169.680003 70.4039997,170.163998 70.46,170.492 C70.5160003,170.820002 70.639999,171.071999 70.832,171.248 C71.024001,171.424001 71.319998,171.512 71.72,171.512 L71.936,171.512 L71.6,173.24 L71.432,173.24 C70.7599966,173.24 70.2320019,173.176001 69.848,173.048 C69.4639981,172.919999 69.172001,172.736001 68.972,172.496 C68.771999,172.255999 68.5840009,171.928002 68.408,171.512 C67.415995,172.664006 66.216007,173.24 64.808,173.24 Z M65.216,171.512 C65.7920029,171.512 66.3479973,171.368001 66.884,171.08 C67.4200027,170.791999 67.8639982,170.408002 68.216,169.928 L68.216,167.12 C66.4879914,167.184 65.2520037,167.411998 64.508,167.804 C63.7639963,168.196002 63.392,168.831996 63.392,169.712 C63.392,170.320003 63.5559984,170.771999 63.884,171.068 C64.2120016,171.364001 64.6559972,171.512 65.216,171.512 Z M83.048,173.24 C82.0079948,173.24 81.2360025,172.968003 80.732,172.424 C80.2279975,171.879997 79.976,171.216004 79.976,170.432 L79.976,162.92 L77.96,162.92 L78.152,161.24 L79.976,161.24 L79.976,158.336 L82.136,158.12 L82.136,161.24 L85.232,161.24 L85.232,162.92 L82.136,162.92 L82.136,169.112 C82.136,169.928004 82.1839995,170.487998 82.28,170.792 C82.3760005,171.096002 82.5799984,171.292 82.892,171.38 C83.2040016,171.468 83.7759958,171.512 84.608,171.512 L85.16,171.512 L84.992,173.24 L83.048,173.24 Z M92.624,173.24 C91.2799933,173.24 90.1320048,172.964003 89.18,172.412 C88.2279952,171.859997 87.5040025,171.112005 87.008,170.168 C86.5119975,169.223995 86.264,168.176006 86.264,167.024 C86.264,165.919994 86.4919977,164.908005 86.948,163.988 C87.4040023,163.067995 88.0679956,162.340003 88.94,161.804 C89.8120044,161.267997 90.8399941,161 92.024,161 C93.5280075,161 94.7479953,161.439996 95.684,162.32 C96.6200047,163.200004 97.088,164.415992 97.088,165.968 C97.088,166.368002 97.0560003,166.751998 96.992,167.12 L88.472,167.12 C88.6160007,168.640008 89.0799961,169.719997 89.864,170.36 C90.6480039,171.000003 91.6559938,171.32 92.888,171.32 C94.1200062,171.32 95.2479949,171.088002 96.272,170.624 L96.56,172.328 C95.1999932,172.936003 93.8880063,173.24 92.624,173.24 Z M94.856,165.632 C94.856,164.783996 94.6160024,164.120002 94.136,163.64 C93.6559976,163.159998 92.9360048,162.92 91.976,162.92 C91.0479954,162.92 90.3200026,163.147998 89.792,163.604 C89.2639974,164.060002 88.8880011,164.735996 88.664,165.632 L94.856,165.632 Z M102.008,173.24 C100.919995,173.24 100.044003,172.920003 99.38,172.28 C98.7159967,171.639997 98.384,170.824005 98.384,169.832 C98.384,168.343993 99.087993,167.280003 100.496,166.64 C101.904007,165.999997 103.543991,165.664 105.416,165.632 C105.416,164.575995 105.212002,163.860002 104.804,163.484 C104.395998,163.107998 103.744004,162.92 102.848,162.92 C102.351998,162.92 101.856002,162.995999 101.36,163.148 C100.863998,163.300001 100.328003,163.575998 99.752,163.976 L99.44,162.224 C99.9200024,161.855998 100.511996,161.560001 101.216,161.336 C101.920004,161.111999 102.655996,161 103.424,161 C104.432005,161 105.235997,161.175998 105.836,161.528 C106.436003,161.880002 106.875999,162.463996 107.156,163.28 C107.436001,164.096004 107.576,165.215993 107.576,166.64 L107.576,169.04 C107.576,169.680003 107.604,170.163998 107.66,170.492 C107.716,170.820002 107.839999,171.071999 108.032,171.248 C108.224001,171.424001 108.519998,171.512 108.92,171.512 L109.136,171.512 L108.8,173.24 L108.632,173.24 C107.959997,173.24 107.432002,173.176001 107.048,173.048 C106.663998,172.919999 106.372001,172.736001 106.172,172.496 C105.971999,172.255999 105.784001,171.928002 105.608,171.512 C104.615995,172.664006 103.416007,173.24 102.008,173.24 Z M102.416,171.512 C102.992003,171.512 103.547997,171.368001 104.084,171.08 C104.620003,170.791999 105.063998,170.408002 105.416,169.928 L105.416,167.12 C103.687991,167.184 102.452004,167.411998 101.708,167.804 C100.963996,168.196002 100.592,168.831996 100.592,169.712 C100.592,170.320003 100.755998,170.771999 101.084,171.068 C101.412002,171.364001 101.855997,171.512 102.416,171.512 Z M116.192,173.24 C114.911994,173.24 113.812005,172.976003 112.892,172.448 C111.971995,171.919997 111.280002,171.196005 110.816,170.276 C110.351998,169.355995 110.12,168.328006 110.12,167.192 C110.12,165.335991 110.643995,163.840006 111.692,162.704 C112.740005,161.567994 114.29599,161 116.36,161 C117.576006,161 118.647995,161.231998 119.576,161.696 L119.24,163.592 C118.263995,163.143998 117.288005,162.92 116.312,162.92 C115.031994,162.92 114.048003,163.283996 113.36,164.012 C112.671997,164.740004 112.328,165.767993 112.328,167.096 C112.328,168.424007 112.659997,169.463996 113.324,170.216 C113.988003,170.968004 114.967994,171.344 116.264,171.344 C117.304005,171.344 118.303995,171.104002 119.264,170.624 L119.552,172.352 C119.199998,172.592001 118.716003,172.799999 118.1,172.976 C117.483997,173.152001 116.848003,173.24 116.192,173.24 Z M127.304,161 C128.792007,161 129.927996,161.487995 130.712,162.464 C131.496004,163.440005 131.888,164.767992 131.888,166.448 L131.888,173 L129.728,173 L129.728,166.712 C129.728,165.415994 129.492002,164.460003 129.02,163.844 C128.547998,163.227997 127.816005,162.92 126.824,162.92 C126.215997,162.92 125.656003,163.059999 125.144,163.34 C124.631997,163.620001 124.200002,164.015997 123.848,164.528 L123.848,173 L121.664,173 L121.664,155 L123.848,155 L123.848,162.368 C124.312002,161.919998 124.819997,161.580001 125.372,161.348 C125.924003,161.115999 126.567996,161 127.304,161 Z M140.336,173.24 C138.991993,173.24 137.844005,172.964003 136.892,172.412 C135.939995,171.859997 135.216002,171.112005 134.72,170.168 C134.223998,169.223995 133.976,168.176006 133.976,167.024 C133.976,165.919994 134.203998,164.908005 134.66,163.988 C135.116002,163.067995 135.779996,162.340003 136.652,161.804 C137.524004,161.267997 138.551994,161 139.736,161 C141.240008,161 142.459995,161.439996 143.396,162.32 C144.332005,163.200004 144.8,164.415992 144.8,165.968 C144.8,166.368002 144.768,166.751998 144.704,167.12 L136.184,167.12 C136.328001,168.640008 136.791996,169.719997 137.576,170.36 C138.360004,171.000003 139.367994,171.32 140.6,171.32 C141.832006,171.32 142.959995,171.088002 143.984,170.624 L144.272,172.328 C142.911993,172.936003 141.600006,173.24 140.336,173.24 Z M142.568,165.632 C142.568,164.783996 142.328002,164.120002 141.848,163.64 C141.367998,163.159998 140.648005,162.92 139.688,162.92 C138.759995,162.92 138.032003,163.147998 137.504,163.604 C136.975997,164.060002 136.600001,164.735996 136.376,165.632 L142.568,165.632 Z M146.984,161.24 L148.76,161.24 L149.024,163.184 C149.632003,162.431996 150.211997,161.880002 150.764,161.528 C151.316003,161.175998 151.895997,161 152.504,161 C152.696001,161 152.879999,161.024 153.056,161.072 L152.84,163.448 C152.631999,163.4 152.392001,163.376 152.12,163.376 C151.527997,163.376 150.968003,163.507999 150.44,163.772 C149.911997,164.036001 149.528001,164.343998 149.288,164.696 L149.288,173 L146.984,173 L146.984,161.24 Z M160.784,162.92 L158.744,162.92 L159.032,161.24 L160.784,161.24 L160.784,158.456 C160.784,157.383995 161.067997,156.540003 161.636,155.924 C162.204003,155.307997 163.023995,155 164.096,155 C164.800004,155 165.423997,155.103999 165.968,155.312 L165.632,157.136 C165.247998,156.991999 164.848002,156.92 164.432,156.92 C163.439995,156.92 162.944,157.479994 162.944,158.6 L162.944,161.24 L166.112,161.24 L166.112,162.92 L162.944,162.92 L162.944,173 L160.784,173 L160.784,162.92 Z M172.808,173.24 C171.607994,173.24 170.568004,172.972003 169.688,172.436 C168.807996,171.899997 168.136002,171.168005 167.672,170.24 C167.207998,169.311995 166.976,168.272006 166.976,167.12 C166.976,165.967994 167.207998,164.928005 167.672,164 C168.136002,163.071995 168.807996,162.340003 169.688,161.804 C170.568004,161.267997 171.607994,161 172.808,161 C173.992006,161 175.027996,161.267997 175.916,161.804 C176.804004,162.340003 177.479998,163.071995 177.944,164 C178.408002,164.928005 178.64,165.967994 178.64,167.12 C178.64,168.272006 178.408002,169.311995 177.944,170.24 C177.479998,171.168005 176.804004,171.899997 175.916,172.436 C175.027996,172.972003 173.992006,173.24 172.808,173.24 Z M172.808,171.32 C173.960006,171.32 174.851997,170.952004 175.484,170.216 C176.116003,169.479996 176.432,168.448007 176.432,167.12 C176.432,165.791993 176.116003,164.760004 175.484,164.024 C174.851997,163.287996 173.960006,162.92 172.808,162.92 C171.655994,162.92 170.764003,163.287996 170.132,164.024 C169.499997,164.760004 169.184,165.791993 169.184,167.12 C169.184,168.448007 169.499997,169.479996 170.132,170.216 C170.764003,170.952004 171.655994,171.32 172.808,171.32 Z M180.872,161.24 L182.648,161.24 L182.912,163.184 C183.520003,162.431996 184.099997,161.880002 184.652,161.528 C185.204003,161.175998 185.783997,161 186.392,161 C186.584001,161 186.767999,161.024 186.944,161.072 L186.728,163.448 C186.519999,163.4 186.280001,163.376 186.008,163.376 C185.415997,163.376 184.856003,163.507999 184.328,163.772 C183.799997,164.036001 183.416001,164.343998 183.176,164.696 L183.176,173 L180.872,173 L180.872,161.24 Z M196.592,173.24 C195.503995,173.24 194.628003,172.920003 193.964,172.28 C193.299997,171.639997 192.968,170.824005 192.968,169.832 C192.968,168.343993 193.671993,167.280003 195.08,166.64 C196.488007,165.999997 198.127991,165.664 200,165.632 C200,164.575995 199.796002,163.860002 199.388,163.484 C198.979998,163.107998 198.328004,162.92 197.432,162.92 C196.935998,162.92 196.440002,162.995999 195.944,163.148 C195.447998,163.300001 194.912003,163.575998 194.336,163.976 L194.024,162.224 C194.504002,161.855998 195.095996,161.560001 195.8,161.336 C196.504004,161.111999 197.239996,161 198.008,161 C199.016005,161 199.819997,161.175998 200.42,161.528 C201.020003,161.880002 201.459999,162.463996 201.74,163.28 C202.020001,164.096004 202.16,165.215993 202.16,166.64 L202.16,169.04 C202.16,169.680003 202.188,170.163998 202.244,170.492 C202.3,170.820002 202.423999,171.071999 202.616,171.248 C202.808001,171.424001 203.103998,171.512 203.504,171.512 L203.72,171.512 L203.384,173.24 L203.216,173.24 C202.543997,173.24 202.016002,173.176001 201.632,173.048 C201.247998,172.919999 200.956001,172.736001 200.756,172.496 C200.555999,172.255999 200.368001,171.928002 200.192,171.512 C199.199995,172.664006 198.000007,173.24 196.592,173.24 Z M197,171.512 C197.576003,171.512 198.131997,171.368001 198.668,171.08 C199.204003,170.791999 199.647998,170.408002 200,169.928 L200,167.12 C198.271991,167.184 197.036004,167.411998 196.292,167.804 C195.547996,168.196002 195.176,168.831996 195.176,169.712 C195.176,170.320003 195.339998,170.771999 195.668,171.068 C195.996002,171.364001 196.439997,171.512 197,171.512 Z M211.184,161 C214.384016,161 215.984,162.839982 215.984,166.52 L215.984,173 L213.824,173 L213.824,166.52 C213.824,165.255994 213.588002,164.340003 213.116,163.772 C212.643998,163.203997 211.856006,162.92 210.752,162.92 C210.047996,162.92 209.408003,163.047999 208.832,163.304 C208.255997,163.560001 207.824001,163.943997 207.536,164.456 L207.536,173 L205.376,173 L205.376,161.24 L207.056,161.24 L207.296,162.488 C207.920003,161.927997 208.547997,161.540001 209.18,161.324 C209.812003,161.107999 210.479996,161 211.184,161 Z M222.056,172.472 L217.16,161.24 L219.56,161.24 L223.232,169.976 L226.544,161.24 L228.944,161.24 L221.744,178.808 L219.344,178.808 L222.056,172.472 Z M234.632,173.24 C233.591995,173.24 232.820003,172.968003 232.316,172.424 C231.811997,171.879997 231.56,171.216004 231.56,170.432 L231.56,162.92 L229.544,162.92 L229.736,161.24 L231.56,161.24 L231.56,158.336 L233.72,158.12 L233.72,161.24 L236.816,161.24 L236.816,162.92 L233.72,162.92 L233.72,169.112 C233.72,169.928004 233.768,170.487998 233.864,170.792 C233.96,171.096002 234.163998,171.292 234.476,171.38 C234.788002,171.468 235.359996,171.512 236.192,171.512 L236.744,171.512 L236.576,173.24 L234.632,173.24 Z M244.28,161 C245.768007,161 246.903996,161.487995 247.688,162.464 C248.472004,163.440005 248.864,164.767992 248.864,166.448 L248.864,173 L246.704,173 L246.704,166.712 C246.704,165.415994 246.468002,164.460003 245.996,163.844 C245.523998,163.227997 244.792005,162.92 243.8,162.92 C243.191997,162.92 242.632003,163.059999 242.12,163.34 C241.607997,163.620001 241.176002,164.015997 240.824,164.528 L240.824,173 L238.64,173 L238.64,155 L240.824,155 L240.824,162.368 C241.288002,161.919998 241.795997,161.580001 242.348,161.348 C242.900003,161.115999 243.543996,161 244.28,161 Z M251.672,156.2 L253.832,156.2 L253.832,158.6 L251.672,158.6 L251.672,156.2 Z M251.672,161.24 L253.832,161.24 L253.832,173 L251.672,173 L251.672,161.24 Z M262.568,161 C265.768016,161 267.368,162.839982 267.368,166.52 L267.368,173 L265.208,173 L265.208,166.52 C265.208,165.255994 264.972002,164.340003 264.5,163.772 C264.027998,163.203997 263.240006,162.92 262.136,162.92 C261.431996,162.92 260.792003,163.047999 260.216,163.304 C259.639997,163.560001 259.208001,163.943997 258.92,164.456 L258.92,173 L256.76,173 L256.76,161.24 L258.44,161.24 L258.68,162.488 C259.304003,161.927997 259.931997,161.540001 260.564,161.324 C261.196003,161.107999 261.863996,161 262.568,161 Z M274.928,179 C273.263992,179 271.916005,178.696003 270.884,178.088 C269.851995,177.479997 269.336,176.616006 269.336,175.496 C269.336,174.263994 270.015993,173.344003 271.376,172.736 C270.607996,172.351998 270.224,171.856003 270.224,171.248 C270.224,170.479996 270.687995,169.912002 271.616,169.544 C270.959997,169.143998 270.456002,168.600003 270.104,167.912 C269.751998,167.223997 269.576,166.448004 269.576,165.584 C269.576,164.719996 269.771998,163.940003 270.164,163.244 C270.556002,162.547997 271.115996,162.000002 271.844,161.6 C272.572004,161.199998 273.431995,161 274.424,161 C275.480005,161 276.439996,161.303997 277.304,161.912 C278.152004,161.431998 279.127994,161.192 280.232,161.192 L280.424,161.192 L280.16,162.632 L279.608,162.632 C279.463999,162.632 279.256001,162.648 278.984,162.68 C278.711999,162.712 278.472001,162.752 278.264,162.8 C278.600002,163.184002 278.855999,163.615998 279.032,164.096 C279.208001,164.576002 279.296,165.071997 279.296,165.584 C279.296,166.480004 279.100002,167.283996 278.708,167.996 C278.315998,168.708004 277.752004,169.267998 277.016,169.676 C276.279996,170.084002 275.416005,170.288 274.424,170.288 C273.847997,170.288 273.320002,170.216001 272.84,170.072 C272.471998,170.200001 272.288,170.407999 272.288,170.696 C272.288,171.080002 272.727996,171.335999 273.608,171.464 L276.752,171.968 C278.064007,172.176001 279.055997,172.551997 279.728,173.096 C280.400003,173.640003 280.736,174.391995 280.736,175.352 C280.736,176.552006 280.220005,177.459997 279.188,178.076 C278.155995,178.692003 276.736009,179 274.928,179 Z M274.424,168.56 C275.320004,168.56 276.011998,168.292003 276.5,167.756 C276.988002,167.219997 277.232,166.504004 277.232,165.608 C277.232,164.743996 276.988002,164.048003 276.5,163.52 C276.011998,162.991997 275.320004,162.728 274.424,162.728 C273.527996,162.728 272.840002,162.991997 272.36,163.52 C271.879998,164.048003 271.64,164.743996 271.64,165.608 C271.64,166.504004 271.879998,167.219997 272.36,167.756 C272.840002,168.292003 273.527996,168.56 274.424,168.56 Z M275.12,177.08 C276.224006,177.08 277.071997,176.936001 277.664,176.648 C278.256003,176.359999 278.552,175.944003 278.552,175.4 C278.552,174.983998 278.372002,174.652001 278.012,174.404 C277.651998,174.155999 277.112004,173.960001 276.392,173.816 L273.032,173.24 C272.551998,173.464001 272.160002,173.739998 271.856,174.068 C271.551998,174.396002 271.4,174.759998 271.4,175.16 C271.4,175.816003 271.727997,176.299998 272.384,176.612 C273.040003,176.924002 273.951994,177.08 275.12,177.08 Z M291.128,172.472 L286.232,161.24 L288.632,161.24 L292.304,169.976 L295.616,161.24 L298.016,161.24 L290.816,178.808 L288.416,178.808 L291.128,172.472 Z M304.544,173.24 C303.343994,173.24 302.304004,172.972003 301.424,172.436 C300.543996,171.899997 299.872002,171.168005 299.408,170.24 C298.943998,169.311995 298.712,168.272006 298.712,167.12 C298.712,165.967994 298.943998,164.928005 299.408,164 C299.872002,163.071995 300.543996,162.340003 301.424,161.804 C302.304004,161.267997 303.343994,161 304.544,161 C305.728006,161 306.763996,161.267997 307.652,161.804 C308.540004,162.340003 309.215998,163.071995 309.68,164 C310.144002,164.928005 310.376,165.967994 310.376,167.12 C310.376,168.272006 310.144002,169.311995 309.68,170.24 C309.215998,171.168005 308.540004,171.899997 307.652,172.436 C306.763996,172.972003 305.728006,173.24 304.544,173.24 Z M304.544,171.32 C305.696006,171.32 306.587997,170.952004 307.22,170.216 C307.852003,169.479996 308.168,168.448007 308.168,167.12 C308.168,165.791993 307.852003,164.760004 307.22,164.024 C306.587997,163.287996 305.696006,162.92 304.544,162.92 C303.391994,162.92 302.500003,163.287996 301.868,164.024 C301.235997,164.760004 300.92,165.791993 300.92,167.12 C300.92,168.448007 301.235997,169.479996 301.868,170.216 C302.500003,170.952004 303.391994,171.32 304.544,171.32 Z M322.256,161.24 L322.256,173 L320.336,173 L320.096,171.704 C319.711998,172.232003 319.260003,172.619999 318.74,172.868 C318.219997,173.116001 317.584004,173.24 316.832,173.24 C315.423993,173.24 314.348004,172.812004 313.604,171.956 C312.859996,171.099996 312.488,169.808009 312.488,168.08 L312.488,161.24 L314.648,161.24 L314.648,167.48 C314.648,168.760006 314.867998,169.719997 315.308,170.36 C315.748002,171.000003 316.439995,171.32 317.384,171.32 C317.944003,171.32 318.467998,171.208001 318.956,170.984 C319.444002,170.759999 319.823999,170.432002 320.096,170 L320.096,161.24 L322.256,161.24 Z M329.408,161.24 L331.952,161.24 L334.208,170.624 L336.704,161.6 L338.936,161.6 L341.456,170.624 L343.712,161.24 L346.256,161.24 L342.704,173 L340.28,173 L337.832,164.312 L335.36,173 L332.936,173 L329.408,161.24 Z M350.624,173.24 C349.535995,173.24 348.660003,172.920003 347.996,172.28 C347.331997,171.639997 347,170.824005 347,169.832 C347,168.343993 347.703993,167.280003 349.112,166.64 C350.520007,165.999997 352.159991,165.664 354.032,165.632 C354.032,164.575995 353.828002,163.860002 353.42,163.484 C353.011998,163.107998 352.360004,162.92 351.464,162.92 C350.967998,162.92 350.472002,162.995999 349.976,163.148 C349.479998,163.300001 348.944003,163.575998 348.368,163.976 L348.056,162.224 C348.536002,161.855998 349.127996,161.560001 349.832,161.336 C350.536004,161.111999 351.271996,161 352.04,161 C353.048005,161 353.851997,161.175998 354.452,161.528 C355.052003,161.880002 355.491999,162.463996 355.772,163.28 C356.052001,164.096004 356.192,165.215993 356.192,166.64 L356.192,169.04 C356.192,169.680003 356.22,170.163998 356.276,170.492 C356.332,170.820002 356.455999,171.071999 356.648,171.248 C356.840001,171.424001 357.135998,171.512 357.536,171.512 L357.752,171.512 L357.416,173.24 L357.248,173.24 C356.575997,173.24 356.048002,173.176001 355.664,173.048 C355.279998,172.919999 354.988001,172.736001 354.788,172.496 C354.587999,172.255999 354.400001,171.928002 354.224,171.512 C353.231995,172.664006 352.032007,173.24 350.624,173.24 Z M351.032,171.512 C351.608003,171.512 352.163997,171.368001 352.7,171.08 C353.236003,170.791999 353.679998,170.408002 354.032,169.928 L354.032,167.12 C352.303991,167.184 351.068004,167.411998 350.324,167.804 C349.579996,168.196002 349.208,168.831996 349.208,169.712 C349.208,170.320003 349.371998,170.771999 349.7,171.068 C350.028002,171.364001 350.471997,171.512 351.032,171.512 Z M365.216,161 C368.416016,161 370.016,162.839982 370.016,166.52 L370.016,173 L367.856,173 L367.856,166.52 C367.856,165.255994 367.620002,164.340003 367.148,163.772 C366.675998,163.203997 365.888006,162.92 364.784,162.92 C364.079996,162.92 363.440003,163.047999 362.864,163.304 C362.287997,163.560001 361.856001,163.943997 361.568,164.456 L361.568,173 L359.408,173 L359.408,161.24 L361.088,161.24 L361.328,162.488 C361.952003,161.927997 362.579997,161.540001 363.212,161.324 C363.844003,161.107999 364.511996,161 365.216,161 Z M376.688,173.24 C375.647995,173.24 374.876003,172.968003 374.372,172.424 C373.867997,171.879997 373.616,171.216004 373.616,170.432 L373.616,162.92 L371.6,162.92 L371.792,161.24 L373.616,161.24 L373.616,158.336 L375.776,158.12 L375.776,161.24 L378.872,161.24 L378.872,162.92 L375.776,162.92 L375.776,169.112 C375.776,169.928004 375.824,170.487998 375.92,170.792 C376.016,171.096002 376.219998,171.292 376.532,171.38 C376.844002,171.468 377.415996,171.512 378.248,171.512 L378.8,171.512 L378.632,173.24 L376.688,173.24 Z M390.176,173.24 C389.135995,173.24 388.364003,172.968003 387.86,172.424 C387.355997,171.879997 387.104,171.216004 387.104,170.432 L387.104,162.92 L385.088,162.92 L385.28,161.24 L387.104,161.24 L387.104,158.336 L389.264,158.12 L389.264,161.24 L392.36,161.24 L392.36,162.92 L389.264,162.92 L389.264,169.112 C389.264,169.928004 389.312,170.487998 389.408,170.792 C389.504,171.096002 389.707998,171.292 390.02,171.38 C390.332002,171.468 390.903996,171.512 391.736,171.512 L392.288,171.512 L392.12,173.24 L390.176,173.24 Z M399.248,173.24 C398.047994,173.24 397.008004,172.972003 396.128,172.436 C395.247996,171.899997 394.576002,171.168005 394.112,170.24 C393.647998,169.311995 393.416,168.272006 393.416,167.12 C393.416,165.967994 393.647998,164.928005 394.112,164 C394.576002,163.071995 395.247996,162.340003 396.128,161.804 C397.008004,161.267997 398.047994,161 399.248,161 C400.432006,161 401.467996,161.267997 402.356,161.804 C403.244004,162.340003 403.919998,163.071995 404.384,164 C404.848002,164.928005 405.08,165.967994 405.08,167.12 C405.08,168.272006 404.848002,169.311995 404.384,170.24 C403.919998,171.168005 403.244004,171.899997 402.356,172.436 C401.467996,172.972003 400.432006,173.24 399.248,173.24 Z M399.248,171.32 C400.400006,171.32 401.291997,170.952004 401.924,170.216 C402.556003,169.479996 402.872,168.448007 402.872,167.12 C402.872,165.791993 402.556003,164.760004 401.924,164.024 C401.291997,163.287996 400.400006,162.92 399.248,162.92 C398.095994,162.92 397.204003,163.287996 396.572,164.024 C395.939997,164.760004 395.624,165.791993 395.624,167.12 C395.624,168.448007 395.939997,169.479996 396.572,170.216 C397.204003,170.952004 398.095994,171.32 399.248,171.32 Z M415.736,173.24 C414.679995,173.24 413.908002,172.968003 413.42,172.424 C412.931998,171.879997 412.688,171.208004 412.688,170.408 L412.688,155 L414.848,155 L414.848,169.16 C414.848,169.864004 414.892,170.375998 414.98,170.696 C415.068,171.016002 415.239999,171.231999 415.496,171.344 C415.752001,171.456001 416.167997,171.512 416.744,171.512 L416.432,173.24 L415.736,173.24 Z M423.896,173.24 C422.551993,173.24 421.404005,172.964003 420.452,172.412 C419.499995,171.859997 418.776002,171.112005 418.28,170.168 C417.783998,169.223995 417.536,168.176006 417.536,167.024 C417.536,165.919994 417.763998,164.908005 418.22,163.988 C418.676002,163.067995 419.339996,162.340003 420.212,161.804 C421.084004,161.267997 422.111994,161 423.296,161 C424.800008,161 426.019995,161.439996 426.956,162.32 C427.892005,163.200004 428.36,164.415992 428.36,165.968 C428.36,166.368002 428.328,166.751998 428.264,167.12 L419.744,167.12 C419.888001,168.640008 420.351996,169.719997 421.136,170.36 C421.920004,171.000003 422.927994,171.32 424.16,171.32 C425.392006,171.32 426.519995,171.088002 427.544,170.624 L427.832,172.328 C426.471993,172.936003 425.160006,173.24 423.896,173.24 Z M426.128,165.632 C426.128,164.783996 425.888002,164.120002 425.408,163.64 C424.927998,163.159998 424.208005,162.92 423.248,162.92 C422.319995,162.92 421.592003,163.147998 421.064,163.604 C420.535997,164.060002 420.160001,164.735996 419.936,165.632 L426.128,165.632 Z M433.28,173.24 C432.191995,173.24 431.316003,172.920003 430.652,172.28 C429.987997,171.639997 429.656,170.824005 429.656,169.832 C429.656,168.343993 430.359993,167.280003 431.768,166.64 C433.176007,165.999997 434.815991,165.664 436.688,165.632 C436.688,164.575995 436.484002,163.860002 436.076,163.484 C435.667998,163.107998 435.016004,162.92 434.12,162.92 C433.623998,162.92 433.128002,162.995999 432.632,163.148 C432.135998,163.300001 431.600003,163.575998 431.024,163.976 L430.712,162.224 C431.192002,161.855998 431.783996,161.560001 432.488,161.336 C433.192004,161.111999 433.927996,161 434.696,161 C435.704005,161 436.507997,161.175998 437.108,161.528 C437.708003,161.880002 438.147999,162.463996 438.428,163.28 C438.708001,164.096004 438.848,165.215993 438.848,166.64 L438.848,169.04 C438.848,169.680003 438.876,170.163998 438.932,170.492 C438.988,170.820002 439.111999,171.071999 439.304,171.248 C439.496001,171.424001 439.791998,171.512 440.192,171.512 L440.408,171.512 L440.072,173.24 L439.904,173.24 C439.231997,173.24 438.704002,173.176001 438.32,173.048 C437.935998,172.919999 437.644001,172.736001 437.444,172.496 C437.243999,172.255999 437.056001,171.928002 436.88,171.512 C435.887995,172.664006 434.688007,173.24 433.28,173.24 Z M433.688,171.512 C434.264003,171.512 434.819997,171.368001 435.356,171.08 C435.892003,170.791999 436.335998,170.408002 436.688,169.928 L436.688,167.12 C434.959991,167.184 433.724004,167.411998 432.98,167.804 C432.235996,168.196002 431.864,168.831996 431.864,169.712 C431.864,170.320003 432.027998,170.771999 432.356,171.068 C432.684002,171.364001 433.127997,171.512 433.688,171.512 Z M442.064,161.24 L443.84,161.24 L444.104,163.184 C444.712003,162.431996 445.291997,161.880002 445.844,161.528 C446.396003,161.175998 446.975997,161 447.584,161 C447.776001,161 447.959999,161.024 448.136,161.072 L447.92,163.448 C447.711999,163.4 447.472001,163.376 447.2,163.376 C446.607997,163.376 446.048003,163.507999 445.52,163.772 C444.991997,164.036001 444.608001,164.343998 444.368,164.696 L444.368,173 L442.064,173 L442.064,161.24 Z M455.456,161 C458.656016,161 460.256,162.839982 460.256,166.52 L460.256,173 L458.096,173 L458.096,166.52 C458.096,165.255994 457.860002,164.340003 457.388,163.772 C456.915998,163.203997 456.128006,162.92 455.024,162.92 C454.319996,162.92 453.680003,163.047999 453.104,163.304 C452.527997,163.560001 452.096001,163.943997 451.808,164.456 L451.808,173 L449.648,173 L449.648,161.24 L451.328,161.24 L451.568,162.488 C452.192003,161.927997 452.819997,161.540001 453.452,161.324 C454.084003,161.107999 454.751996,161 455.456,161 Z" id="Find-a-teacher-for-a" fill="#484848"></path>
            </g>
        </g>
    </g>
</svg>
