<?xml version="1.0" encoding="UTF-8"?>
<svg viewBox="0 0 1000 411" version="1.1" xmlns="http://www.w3.org/2000/svg" xmlns:xlink="http://www.w3.org/1999/xlink" style="background: #EEEEEE;">
    <!-- Generator: Sketch 48.2 (47327) - http://www.bohemiancoding.com/sketch -->
    <title>Artboard 2</title>
    <desc>Created with Sketch.</desc>
    <defs></defs>
    <g id="Page-1" stroke="none" stroke-width="1" fill="none" fill-rule="evenodd">
        <g id="Artboard-2" fill="#333333">
            <path d="M378.728516,205.017578 C377.7845,204.985026 376.79981,204.92806 375.774414,204.84668 C374.749018,204.765299 373.536465,204.708333 372.136719,204.675781 C369.076808,204.610677 365.756528,204.740884 362.175781,205.066406 C361.361975,207.865899 360.019215,211.308248 358.147461,215.393555 C356.275707,219.478862 354.428395,222.937486 352.605469,225.769531 C348.699199,231.824249 344.727885,235.567701 340.691406,237 C340.105466,237.227866 339.511396,237.341797 338.90918,237.341797 C338.306963,237.341797 337.761721,237.236004 337.273438,237.024414 C336.785154,236.812824 336.378257,236.544272 336.052734,236.21875 C335.369137,235.600257 335.027344,234.91667 335.027344,234.167969 C335.027344,233.419267 335.271482,232.865887 335.759766,232.507812 C340.382185,229.154931 345.134741,220.70775 350.017578,207.166016 L348.943359,207.458984 C348.585285,207.556641 348.276043,207.654296 348.015625,207.751953 C347.755207,207.84961 347.454103,207.898438 347.112305,207.898438 C346.770506,207.898438 346.396161,207.792644 345.989258,207.581055 C345.582355,207.369465 345.216147,207.117189 344.890625,206.824219 C344.174476,206.173174 343.816406,205.538415 343.816406,204.919922 C343.816406,204.301429 344.101234,203.723635 344.670898,203.186523 C345.240563,202.649411 345.948563,202.136721 346.794922,201.648438 C348.35743,200.736975 350.326811,199.890629 352.703125,199.109375 L355.339844,190.90625 C358.432307,181.303337 361.394517,174.646503 364.226562,170.935547 C361.557278,170.707681 359.587897,170.59375 358.318359,170.59375 C354.477194,170.59375 351.710295,171.130854 350.017578,172.205078 C348.357414,173.279302 347.193688,174.443028 346.526367,175.696289 C345.859046,176.949551 345.509115,177.82031 345.476562,178.308594 C345.378906,179.220057 345.08594,179.79785 344.597656,180.041992 C344.109373,180.286134 343.515303,180.408203 342.81543,180.408203 C342.115556,180.408203 341.39128,180.155927 340.642578,179.651367 C339.893876,179.146807 339.275393,178.50391 338.787109,177.722656 C337.745437,176.127596 337.338541,174.329112 337.566406,172.327148 C337.794272,170.325185 338.453445,168.599942 339.543945,167.151367 C340.634446,165.702792 341.928378,164.522791 343.425781,163.611328 C346.192722,161.918611 349.114242,161.072266 352.19043,161.072266 C355.266617,161.072266 358.179999,161.226886 360.930664,161.536133 C363.681329,161.845379 366.423814,162.195311 369.158203,162.585938 C376.417354,163.562505 381.039704,164.050781 383.025391,164.050781 C385.011078,164.050781 386.484045,163.93685 387.444336,163.708984 C388.404627,163.481119 389.226559,163.139325 389.910156,162.683594 C390.593753,162.227862 391.073892,161.926759 391.350586,161.780273 C391.62728,161.633788 392.074867,161.560547 392.693359,161.560547 C393.669927,161.560547 394.0931,162.301099 393.962891,163.782227 C393.832682,165.263354 393.474612,166.532872 392.888672,167.59082 C392.302731,168.648768 391.537765,169.519528 390.59375,170.203125 C388.673167,171.602872 386.231786,172.302734 383.269531,172.302734 C380.307277,172.302734 376.710308,172.107424 372.478516,171.716797 C371.404292,173.897797 370.378911,176.762352 369.402344,180.310547 L364.910156,196.423828 C367.970067,195.935544 370.305656,195.691406 371.916992,195.691406 C373.528328,195.691406 374.854812,195.854165 375.896484,196.179688 C376.938156,196.50521 377.865881,196.960935 378.679688,197.546875 C380.567718,198.816413 381.495443,200.378897 381.462891,202.234375 C381.430338,204.089853 380.518889,205.017578 378.728516,205.017578 Z M389.910156,214.734375 C390.040365,210.828105 390.650711,206.718446 391.741211,202.405273 C392.831711,198.092101 394.320954,193.933614 396.208984,189.929688 C398.097015,185.925761 400.334948,182.166033 402.922852,178.650391 C405.510755,175.134748 408.350896,172.074883 411.443359,169.470703 C418.084018,163.871717 425.050094,161.072266 432.341797,161.072266 C441.196008,161.072266 446.973945,165.092408 449.675781,173.132812 C450.652349,175.964858 451.083659,179.456034 450.969727,183.606445 C450.855794,187.756857 450.221034,191.980447 449.06543,196.277344 C447.909825,200.57424 446.347341,204.724589 444.37793,208.728516 C442.408519,212.732442 440.105482,216.484032 437.46875,219.983398 C434.832018,223.482765 431.967463,226.518216 428.875,229.089844 C422.266894,234.68883 415.658887,237.488281 409.050781,237.488281 C403.126272,237.488281 398.422543,235.551452 394.939453,231.677734 C391.391258,227.70636 389.714843,222.05863 389.910156,214.734375 Z M405.828125,195.984375 C404.16796,199.760436 402.8252,203.617819 401.799805,207.556641 C400.774409,211.495462 400.221029,214.840156 400.139648,217.59082 C400.058268,220.341485 400.221027,222.473625 400.62793,223.987305 C401.034833,225.500984 401.612626,226.778641 402.361328,227.820312 C403.923836,230.033865 405.933907,231.140625 408.391602,231.140625 C410.849296,231.140625 413.315092,230.343107 415.789062,228.748047 C418.263033,227.152987 420.663725,225.020847 422.991211,222.351562 C425.318697,219.682278 427.532216,216.606137 429.631836,213.123047 C431.731456,209.639957 433.578768,206.010436 435.173828,202.234375 C439.796247,191.264268 441.488938,182.214879 440.251953,175.085938 C439.405595,170.137996 436.703799,167.664062 432.146484,167.664062 C427.979797,167.664062 423.341171,170.496065 418.230469,176.160156 C413.412736,181.43362 409.278663,188.041627 405.828125,195.984375 Z M455.4375,214.734375 C455.567709,210.828105 456.178054,206.718446 457.268555,202.405273 C458.359055,198.092101 459.848298,193.933614 461.736328,189.929688 C463.624358,185.925761 465.862292,182.166033 468.450195,178.650391 C471.038099,175.134748 473.87824,172.074883 476.970703,169.470703 C483.611361,163.871717 490.577437,161.072266 497.869141,161.072266 C506.723352,161.072266 512.501289,165.092408 515.203125,173.132812 C516.179692,175.964858 516.611003,179.456034 516.49707,183.606445 C516.383137,187.756857 515.748378,191.980447 514.592773,196.277344 C513.437169,200.57424 511.874684,204.724589 509.905273,208.728516 C507.935863,212.732442 505.632826,216.484032 502.996094,219.983398 C500.359362,223.482765 497.494807,226.518216 494.402344,229.089844 C487.794238,234.68883 481.186231,237.488281 474.578125,237.488281 C468.653616,237.488281 463.949887,235.551452 460.466797,231.677734 C456.918602,227.70636 455.242187,222.05863 455.4375,214.734375 Z M471.355469,195.984375 C469.695304,199.760436 468.352544,203.617819 467.327148,207.556641 C466.301753,211.495462 465.748373,214.840156 465.666992,217.59082 C465.585612,220.341485 465.74837,222.473625 466.155273,223.987305 C466.562177,225.500984 467.13997,226.778641 467.888672,227.820312 C469.45118,230.033865 471.461251,231.140625 473.918945,231.140625 C476.37664,231.140625 478.842436,230.343107 481.316406,228.748047 C483.790377,227.152987 486.191069,225.020847 488.518555,222.351562 C490.84604,219.682278 493.05956,216.606137 495.15918,213.123047 C497.2588,209.639957 499.106112,206.010436 500.701172,202.234375 C505.323591,191.264268 507.016282,182.214879 505.779297,175.085938 C504.932938,170.137996 502.231143,167.664062 497.673828,167.664062 C493.507141,167.664062 488.868515,170.496065 483.757812,176.160156 C478.94008,181.43362 474.806007,188.041627 471.355469,195.984375 Z M519.695312,225.476562 C519.988283,223.360667 520.614904,220.439146 521.575195,216.711914 C522.535487,212.984682 523.764315,209.005229 525.261719,204.773438 C528.679705,195.072868 532.732398,186.430376 537.419922,178.845703 C538.070967,177.804031 538.901037,177.201824 539.910156,177.039062 C541.342455,176.843749 542.603836,176.746094 543.694336,176.746094 C544.784836,176.746094 545.761389,176.868163 546.624023,177.112305 C547.486658,177.356447 548.162107,177.673826 548.650391,178.064453 C549.626958,178.878259 549.789717,179.740881 549.138672,180.652344 C543.246715,189.539107 538.103538,200.378842 533.708984,213.171875 C532.04882,218.054712 531.055991,221.448233 530.730469,223.352539 C530.404946,225.256845 530.168946,226.558916 530.022461,227.258789 C529.875976,227.958662 529.802734,228.569008 529.802734,229.089844 C529.802734,230.164068 530.486321,230.701172 531.853516,230.701172 C533.22071,230.701172 534.750643,230.383792 536.443359,229.749023 C538.136076,229.114255 539.958975,228.219081 541.912109,227.063477 C543.865244,225.907872 545.891591,224.500008 547.991211,222.839844 C550.090831,221.179679 552.149729,219.316091 554.167969,217.249023 C556.186208,215.181956 558.090486,212.944022 559.880859,210.535156 C561.671233,208.12629 563.233717,205.587253 564.568359,202.917969 C567.530614,197.058564 569.011719,191.280627 569.011719,185.583984 C569.011719,177.771445 565.837922,172.57944 559.490234,170.007812 C557.276682,169.128902 554.973645,168.689453 552.581055,168.689453 C550.188465,168.689453 548.162118,168.844074 546.501953,169.15332 C544.841789,169.462567 543.246752,169.893877 541.716797,170.447266 C538.624333,171.554042 536.020193,173.035147 533.904297,174.890625 C533.350909,175.216147 532.683598,175.378906 531.902344,175.378906 C531.12109,175.378906 530.282882,175.151044 529.387695,174.695312 C528.492509,174.239581 527.686853,173.669925 526.970703,172.986328 C525.343091,171.391268 524.692056,169.861335 525.017578,168.396484 C525.375653,166.313141 528.500622,164.506518 534.392578,162.976562 C539.34052,161.707025 544.320938,161.072266 549.333984,161.072266 C554.34703,161.072266 558.863587,161.755853 562.883789,163.123047 C566.903991,164.490241 570.167305,166.329416 572.673828,168.640625 C577.361352,173.002626 579.705078,178.845667 579.705078,186.169922 C579.705078,195.870491 576.352247,205.229122 569.646484,214.246094 C563.49411,222.612021 556.169964,228.959614 547.673828,233.289062 C542.172499,236.088556 537.1107,237.488281 532.488281,237.488281 C528.874982,237.488281 525.766289,236.430349 523.162109,234.314453 C520.362616,232.068348 519.207029,229.122414 519.695312,225.476562 Z M577.556641,232.507812 C583.188179,228.373677 588.868461,217.729252 594.597656,200.574219 C597.917985,190.580679 600.22916,181.563842 601.53125,173.523438 C601.889325,171.277333 602.068359,169.552089 602.068359,168.347656 C600.733717,168.412761 599.49675,168.77083 598.357422,169.421875 L594.695312,171.521484 C593.686193,172.074873 592.343433,171.635424 590.666992,170.203125 C588.990552,168.770826 588.225585,167.558273 588.37207,166.56543 C588.518555,165.572586 589.071935,164.758792 590.032227,164.124023 C590.992518,163.489255 592.107416,162.944013 593.376953,162.488281 C596.046237,161.544266 598.284171,161.072266 600.09082,161.072266 C601.89747,161.072266 603.492506,161.210611 604.875977,161.487305 C606.259447,161.763999 607.520828,162.227861 608.660156,162.878906 C611.264336,164.37631 612.598958,166.524726 612.664062,169.324219 C612.794271,174.174503 611.150408,182.410098 607.732422,194.03125 C602.328749,212.423269 595.981156,225.346317 588.689453,232.800781 C586.703766,234.851573 584.636729,236.251298 582.488281,237 C581.902341,237.227866 581.308271,237.341797 580.706055,237.341797 C580.103838,237.341797 579.558596,237.236004 579.070312,237.024414 C578.582029,236.812824 578.175132,236.544272 577.849609,236.21875 C577.166012,235.600257 576.824219,234.91667 576.824219,234.167969 C576.824219,233.419267 577.068357,232.865887 577.556641,232.507812 Z M623.357422,224.158203 C623.357422,227.250667 624.529285,228.796875 626.873047,228.796875 C631.169943,228.796875 636.75257,223.409559 643.621094,212.634766 C645.671885,209.444646 647.722646,206.075539 649.773438,202.527344 L655.730469,191.589844 C664.259157,175.085855 669.174473,165.678397 670.476562,163.367188 C671.127607,162.195307 672.055333,161.609375 673.259766,161.609375 C674.464199,161.609375 675.473303,161.780272 676.287109,162.12207 C677.100916,162.463869 677.800778,162.911456 678.386719,163.464844 C679.753913,164.766934 680.095707,166.069004 679.412109,167.371094 C677.133452,171.602886 675.017588,176.339167 673.064453,181.580078 L660.857422,215.613281 C659.555332,219.063819 658.204434,222.392237 656.804688,225.598633 C655.404941,228.805029 653.834319,231.986963 652.092773,235.144531 C650.351228,238.302099 648.48764,241.313137 646.501953,244.177734 C644.516266,247.042332 642.432954,249.703438 640.251953,252.161133 C638.070953,254.618827 635.841157,256.759105 633.5625,258.582031 C628.712215,262.423196 624.07359,264.34375 619.646484,264.34375 C618.800126,264.34375 617.970056,264.148439 617.15625,263.757812 C616.342444,263.367186 615.854167,262.813806 615.691406,262.097656 C615.528645,261.381507 615.642576,260.89323 616.033203,260.632812 C616.42383,260.372395 616.944658,260.11198 617.595703,259.851562 C626.580123,256.498681 635.059856,247.546948 643.035156,232.996094 C645.378918,228.699197 647.54361,224.223331 649.529297,219.568359 C651.807954,213.546194 653.272783,209.607431 653.923828,207.751953 L648.992188,215.271484 C638.73823,230.082756 630.030635,237.488281 622.869141,237.488281 C618.018856,237.488281 614.779956,235.372417 613.152344,231.140625 C612.66406,229.805983 612.419922,228.666671 612.419922,227.722656 L612.419922,225.867188 C612.419922,221.928366 614.714821,214.441461 619.304688,203.40625 L629.460938,179.773438 C631.414072,175.053362 632.390625,172.148117 632.390625,171.057617 C632.390625,169.967117 632.195314,169.145185 631.804688,168.591797 C631.414061,168.038409 630.974612,167.59896 630.486328,167.273438 L629.167969,166.296875 C628.777342,166.036457 628.582031,165.645836 628.582031,165.125 C628.582031,164.604164 628.842445,164.083336 629.363281,163.5625 C629.884117,163.041664 630.567704,162.585939 631.414062,162.195312 C633.106779,161.446611 634.775057,161.072266 636.418945,161.072266 C638.062834,161.072266 639.332352,161.243162 640.227539,161.584961 C641.122726,161.92676 641.863278,162.35807 642.449219,162.878906 C643.588547,163.95313 644.158203,165.247063 644.158203,166.760742 C644.158203,168.274422 643.873375,170.05663 643.303711,172.107422 C642.734047,174.158213 641.985356,176.396147 641.057617,178.821289 C640.129878,181.246431 639.063808,183.809882 637.859375,186.511719 L630.4375,202.820312 C625.717424,213.204479 623.357422,220.0729 623.357422,223.425781 L623.357422,224.158203 Z" id="FOODIY"></path>
        </g>
    </g>
</svg>
